<?xml version="1.0" standalone="no"?><!DOCTYPE svg PUBLIC "-//W3C//DTD SVG 1.1//EN" "http://www.w3.org/Graphics/SVG/1.1/DTD/svg11.dtd"><svg t="1575881727983" class="icon" viewBox="0 0 1024 1024" version="1.1" xmlns="http://www.w3.org/2000/svg" p-id="1411" width="128" height="128" xmlns:xlink="http://www.w3.org/1999/xlink"><defs><style type="text/css"></style></defs><path d="M894.208 771.968l-38.016 0 0-55.936L887.04 716.032l0-44.032-30.848 0 0-52.224-46.336 0 0 52.224L771.84 672l0-52.224-46.336 0 0 52.224-30.976 0 0 44.032 30.976 0 0 55.936-36.864 0 0 44.032 53.504 0c-0.768 0.768-2.432 2.432-4.736 4.736-22.144 25.344-39.168 42.752-51.072 52.352l36.864 32.128c8.704-8.704 20.992-21.888 36.864-39.296 9.472-10.24 17.024-18.56 22.528-24.96l-36.864-24.96 82.048 0-32.128 26.112c14.976 15.872 35.2 36.096 60.672 60.672l36.864-32.128c-4.736-3.2-11.136-9.088-19.072-17.792-17.408-15.872-30.976-28.16-40.448-36.864l60.672 0L894.336 771.968zM809.856 771.968 771.84 771.968l0-55.936 38.016 0L809.856 771.968z" p-id="1412"></path><path d="M654.08 618.624c-11.904 47.488-28.16 87.168-48.768 118.912 0.768 8.704 2.432 22.528 4.736 41.6 0.768 11.904 1.536 20.992 2.432 27.392 7.168-9.472 13.824-19.072 20.224-28.544l0 126.08 46.336 0L679.04 691.2c8.704-18.304 16.64-38.4 23.808-60.672L654.08 618.624z" p-id="1413"></path><path d="M445.952 430.464m-61.184 0a47.8 47.8 0 1 0 122.368 0 47.8 47.8 0 1 0-122.368 0Z" p-id="1414"></path><path d="M753.28 540.288c22.144 0 43.648 3.328 63.744 9.472L817.024 239.488c0-51.968-42.112-94.08-94.08-94.08L258.432 145.408c-51.968 0-94.08 42.112-94.08 94.08l0 548.096c0 51.968 42.112 94.08 94.08 94.08l305.152 0 3.2-4.096c-21.376-33.92-33.92-73.984-33.92-116.992C532.992 638.976 631.552 540.288 753.28 540.288zM473.6 596.864l-53.12 0c-26.24-94.336-106.24-59.776-106.24-59.776l-28.16-46.208c72.448-68.736 0-119.296 0-119.296 0 0 0.896-1.408 27.648-46.08 92.544 25.728 107.008-61.184 107.008-61.184l52.48 0c16.896 86.784 107.52 61.44 107.52 61.44s-0.384 0.768 25.856 44.544c-68.352 62.848-0.384 121.472-0.384 121.472s-0.384 0.384-25.984 44.16C490.24 510.208 473.6 596.864 473.6 596.864z" p-id="1415"></path></svg>